<svg xmlns="http://www.w3.org/2000/svg" xmlns:xlink="http://www.w3.org/1999/xlink" width="356" height="215" viewBox="0 0 356 215">
  <defs>
    <clipPath id="clip-path">
      <rect id="box" width="356" height="215" rx="6" fill="#01048a"/>
    </clipPath>
  </defs>
  <g id="Group_2" data-name="Group 2" clip-path="url(#clip-path)">
    <g id="waves" transform="translate(-24.13 60.925)" opacity="0.119">
      <g id="original_Path_6_97883563_Group" data-name="original_Path 6_97883563 Group">
        <path id="duplicate_50_original_Path_6_97883563" data-name="duplicate_50_original_Path 6_97883563" d="M0,143.657s28.527-13.817,49.377-37.138,62.8-21.113,84.245-18.407,61.42,2.331,83.666-29.535S246.428-3.379,286.113.307s72.764,16.988,104.93,9.565" transform="translate(235.644 235.492)" fill="none" stroke="#fff" stroke-miterlimit="10" stroke-width="3"/>
        <path id="duplicate_49_original_Path_6_97883563" data-name="duplicate_49_original_Path 6_97883563" d="M0,143.657s28.527-13.817,49.377-37.138,62.8-21.113,84.245-18.407,61.42,2.331,83.666-29.535S246.428-3.379,286.113.307s72.764,16.988,104.93,9.565" transform="translate(230.842 230.687)" fill="none" stroke="#fff" stroke-miterlimit="10" stroke-width="3"/>
        <path id="duplicate_48_original_Path_6_97883563" data-name="duplicate_48_original_Path 6_97883563" d="M0,143.657s28.527-13.817,49.377-37.138,62.8-21.113,84.245-18.407,61.42,2.331,83.666-29.535S246.428-3.379,286.113.307s72.764,16.988,104.93,9.565" transform="translate(226.04 225.881)" fill="none" stroke="#fff" stroke-miterlimit="10" stroke-width="3"/>
        <path id="duplicate_47_original_Path_6_97883563" data-name="duplicate_47_original_Path 6_97883563" d="M0,143.657s28.527-13.817,49.377-37.138,62.8-21.113,84.245-18.407,61.42,2.331,83.666-29.535S246.428-3.379,286.113.307s72.764,16.988,104.93,9.565" transform="translate(221.239 221.075)" fill="none" stroke="#fff" stroke-miterlimit="10" stroke-width="3"/>
        <path id="duplicate_46_original_Path_6_97883563" data-name="duplicate_46_original_Path 6_97883563" d="M0,143.657s28.527-13.817,49.377-37.138,62.8-21.113,84.245-18.407,61.42,2.331,83.666-29.535S246.428-3.379,286.113.307s72.764,16.988,104.93,9.565" transform="translate(216.437 216.27)" fill="none" stroke="#fff" stroke-miterlimit="10" stroke-width="3"/>
        <path id="duplicate_45_original_Path_6_97883563" data-name="duplicate_45_original_Path 6_97883563" d="M0,143.657s28.527-13.817,49.377-37.138,62.8-21.113,84.245-18.407,61.42,2.331,83.666-29.535S246.428-3.379,286.113.307s72.764,16.988,104.93,9.565" transform="translate(211.635 211.464)" fill="none" stroke="#fff" stroke-miterlimit="10" stroke-width="3"/>
        <path id="duplicate_44_original_Path_6_97883563" data-name="duplicate_44_original_Path 6_97883563" d="M0,143.657s28.527-13.817,49.377-37.138,62.8-21.113,84.245-18.407,61.42,2.331,83.666-29.535S246.428-3.379,286.113.307s72.764,16.988,104.93,9.565" transform="translate(206.834 206.658)" fill="none" stroke="#fff" stroke-miterlimit="10" stroke-width="3"/>
        <path id="duplicate_43_original_Path_6_97883563" data-name="duplicate_43_original_Path 6_97883563" d="M0,143.657s28.527-13.817,49.377-37.138,62.8-21.113,84.245-18.407,61.42,2.331,83.666-29.535S246.428-3.379,286.113.307s72.764,16.988,104.93,9.565" transform="translate(202.032 201.852)" fill="none" stroke="#fff" stroke-miterlimit="10" stroke-width="3"/>
        <path id="duplicate_42_original_Path_6_97883563" data-name="duplicate_42_original_Path 6_97883563" d="M0,143.657s28.527-13.817,49.377-37.138,62.8-21.113,84.245-18.407,61.42,2.331,83.666-29.535S246.428-3.379,286.113.307s72.764,16.988,104.93,9.565" transform="translate(197.23 197.047)" fill="none" stroke="#fff" stroke-miterlimit="10" stroke-width="3"/>
        <path id="duplicate_41_original_Path_6_97883563" data-name="duplicate_41_original_Path 6_97883563" d="M0,143.657s28.527-13.817,49.377-37.138,62.8-21.113,84.245-18.407,61.42,2.331,83.666-29.535S246.428-3.379,286.113.307s72.764,16.988,104.93,9.565" transform="translate(192.429 192.241)" fill="none" stroke="#fff" stroke-miterlimit="10" stroke-width="3"/>
        <path id="duplicate_40_original_Path_6_97883563" data-name="duplicate_40_original_Path 6_97883563" d="M0,143.657s28.527-13.817,49.377-37.138,62.8-21.113,84.245-18.407,61.42,2.331,83.666-29.535S246.428-3.379,286.113.307s72.764,16.988,104.93,9.565" transform="translate(187.627 187.435)" fill="none" stroke="#fff" stroke-miterlimit="10" stroke-width="3"/>
        <path id="duplicate_39_original_Path_6_97883563" data-name="duplicate_39_original_Path 6_97883563" d="M0,143.657s28.527-13.817,49.377-37.138,62.8-21.113,84.245-18.407,61.42,2.331,83.666-29.535S246.428-3.379,286.113.307s72.764,16.988,104.93,9.565" transform="translate(182.825 182.63)" fill="none" stroke="#fff" stroke-miterlimit="10" stroke-width="3"/>
        <path id="duplicate_38_original_Path_6_97883563" data-name="duplicate_38_original_Path 6_97883563" d="M0,143.657s28.527-13.817,49.377-37.138,62.8-21.113,84.245-18.407,61.42,2.331,83.666-29.535S246.428-3.379,286.113.307s72.764,16.988,104.93,9.565" transform="translate(178.023 177.824)" fill="none" stroke="#fff" stroke-miterlimit="10" stroke-width="3"/>
        <path id="duplicate_37_original_Path_6_97883563" data-name="duplicate_37_original_Path 6_97883563" d="M0,143.657s28.527-13.817,49.377-37.138,62.8-21.113,84.245-18.407,61.42,2.331,83.666-29.535S246.428-3.379,286.113.307s72.764,16.988,104.93,9.565" transform="translate(173.222 173.018)" fill="none" stroke="#fff" stroke-miterlimit="10" stroke-width="3"/>
        <path id="duplicate_36_original_Path_6_97883563" data-name="duplicate_36_original_Path 6_97883563" d="M0,143.657s28.527-13.817,49.377-37.138,62.8-21.113,84.245-18.407,61.42,2.331,83.666-29.535S246.428-3.379,286.113.307s72.764,16.988,104.93,9.565" transform="translate(168.42 168.213)" fill="none" stroke="#fff" stroke-miterlimit="10" stroke-width="3"/>
        <path id="duplicate_35_original_Path_6_97883563" data-name="duplicate_35_original_Path 6_97883563" d="M0,143.657s28.527-13.817,49.377-37.138,62.8-21.113,84.245-18.407,61.42,2.331,83.666-29.535S246.428-3.379,286.113.307s72.764,16.988,104.93,9.565" transform="translate(163.618 163.407)" fill="none" stroke="#fff" stroke-miterlimit="10" stroke-width="3"/>
        <path id="duplicate_34_original_Path_6_97883563" data-name="duplicate_34_original_Path 6_97883563" d="M0,143.657s28.527-13.817,49.377-37.138,62.8-21.113,84.245-18.407,61.42,2.331,83.666-29.535S246.428-3.379,286.113.307s72.764,16.988,104.93,9.565" transform="translate(158.817 158.601)" fill="none" stroke="#fff" stroke-miterlimit="10" stroke-width="3"/>
        <path id="duplicate_33_original_Path_6_97883563" data-name="duplicate_33_original_Path 6_97883563" d="M0,143.657s28.527-13.817,49.377-37.138,62.8-21.113,84.245-18.407,61.42,2.331,83.666-29.535S246.428-3.379,286.113.307s72.764,16.988,104.93,9.565" transform="translate(154.015 153.796)" fill="none" stroke="#fff" stroke-miterlimit="10" stroke-width="3"/>
        <path id="duplicate_32_original_Path_6_97883563" data-name="duplicate_32_original_Path 6_97883563" d="M0,143.657s28.527-13.817,49.377-37.138,62.8-21.113,84.245-18.407,61.42,2.331,83.666-29.535S246.428-3.379,286.113.307s72.764,16.988,104.93,9.565" transform="translate(149.213 148.99)" fill="none" stroke="#fff" stroke-miterlimit="10" stroke-width="3"/>
        <path id="duplicate_31_original_Path_6_97883563" data-name="duplicate_31_original_Path 6_97883563" d="M0,143.657s28.527-13.817,49.377-37.138,62.8-21.113,84.245-18.407,61.42,2.331,83.666-29.535S246.428-3.379,286.113.307s72.764,16.988,104.93,9.565" transform="translate(144.412 144.184)" fill="none" stroke="#fff" stroke-miterlimit="10" stroke-width="3"/>
        <path id="duplicate_30_original_Path_6_97883563" data-name="duplicate_30_original_Path 6_97883563" d="M0,143.657s28.527-13.817,49.377-37.138,62.8-21.113,84.245-18.407,61.42,2.331,83.666-29.535S246.428-3.379,286.113.307s72.764,16.988,104.93,9.565" transform="translate(139.61 139.379)" fill="none" stroke="#fff" stroke-miterlimit="10" stroke-width="3"/>
        <path id="duplicate_29_original_Path_6_97883563" data-name="duplicate_29_original_Path 6_97883563" d="M0,143.657s28.527-13.817,49.377-37.138,62.8-21.113,84.245-18.407,61.42,2.331,83.666-29.535S246.428-3.379,286.113.307s72.764,16.988,104.93,9.565" transform="translate(134.808 134.573)" fill="none" stroke="#fff" stroke-miterlimit="10" stroke-width="3"/>
        <path id="duplicate_28_original_Path_6_97883563" data-name="duplicate_28_original_Path 6_97883563" d="M0,143.657s28.527-13.817,49.377-37.138,62.8-21.113,84.245-18.407,61.42,2.331,83.666-29.535S246.428-3.379,286.113.307s72.764,16.988,104.93,9.565" transform="translate(130.006 129.767)" fill="none" stroke="#fff" stroke-miterlimit="10" stroke-width="3"/>
        <path id="duplicate_27_original_Path_6_97883563" data-name="duplicate_27_original_Path 6_97883563" d="M0,143.657s28.527-13.817,49.377-37.138,62.8-21.113,84.245-18.407,61.42,2.331,83.666-29.535S246.428-3.379,286.113.307s72.764,16.988,104.93,9.565" transform="translate(125.205 124.962)" fill="none" stroke="#fff" stroke-miterlimit="10" stroke-width="3"/>
        <path id="duplicate_26_original_Path_6_97883563" data-name="duplicate_26_original_Path 6_97883563" d="M0,143.657s28.527-13.817,49.377-37.138,62.8-21.113,84.245-18.407,61.42,2.331,83.666-29.535S246.428-3.379,286.113.307s72.764,16.988,104.93,9.565" transform="translate(120.403 120.156)" fill="none" stroke="#fff" stroke-miterlimit="10" stroke-width="3"/>
        <path id="duplicate_25_original_Path_6_97883563" data-name="duplicate_25_original_Path 6_97883563" d="M0,143.657s28.527-13.817,49.377-37.138,62.8-21.113,84.245-18.407,61.42,2.331,83.666-29.535S246.428-3.379,286.113.307s72.764,16.988,104.93,9.565" transform="translate(115.601 115.35)" fill="none" stroke="#fff" stroke-miterlimit="10" stroke-width="3"/>
        <path id="duplicate_24_original_Path_6_97883563" data-name="duplicate_24_original_Path 6_97883563" d="M0,143.657s28.527-13.817,49.377-37.138,62.8-21.113,84.245-18.407,61.42,2.331,83.666-29.535S246.428-3.379,286.113.307s72.764,16.988,104.93,9.565" transform="translate(110.8 110.545)" fill="none" stroke="#fff" stroke-miterlimit="10" stroke-width="3"/>
        <path id="duplicate_23_original_Path_6_97883563" data-name="duplicate_23_original_Path 6_97883563" d="M0,143.657s28.527-13.817,49.377-37.138,62.8-21.113,84.245-18.407,61.42,2.331,83.666-29.535S246.428-3.379,286.113.307s72.764,16.988,104.93,9.565" transform="translate(105.998 105.739)" fill="none" stroke="#fff" stroke-miterlimit="10" stroke-width="3"/>
        <path id="duplicate_22_original_Path_6_97883563" data-name="duplicate_22_original_Path 6_97883563" d="M0,143.657s28.527-13.817,49.377-37.138,62.8-21.113,84.245-18.407,61.42,2.331,83.666-29.535S246.428-3.379,286.113.307s72.764,16.988,104.93,9.565" transform="translate(101.196 100.933)" fill="none" stroke="#fff" stroke-miterlimit="10" stroke-width="3"/>
        <path id="duplicate_21_original_Path_6_97883563" data-name="duplicate_21_original_Path 6_97883563" d="M0,143.657s28.527-13.817,49.377-37.138,62.8-21.113,84.245-18.407,61.42,2.331,83.666-29.535S246.428-3.379,286.113.307s72.764,16.988,104.93,9.565" transform="translate(96.395 96.128)" fill="none" stroke="#fff" stroke-miterlimit="10" stroke-width="3"/>
        <path id="duplicate_20_original_Path_6_97883563" data-name="duplicate_20_original_Path 6_97883563" d="M0,143.657s28.527-13.817,49.377-37.138,62.8-21.113,84.245-18.407,61.42,2.331,83.666-29.535S246.428-3.379,286.113.307s72.764,16.988,104.93,9.565" transform="translate(91.593 91.322)" fill="none" stroke="#fff" stroke-miterlimit="10" stroke-width="3"/>
        <path id="duplicate_19_original_Path_6_97883563" data-name="duplicate_19_original_Path 6_97883563" d="M0,143.657s28.527-13.817,49.377-37.138,62.8-21.113,84.245-18.407,61.42,2.331,83.666-29.535S246.428-3.379,286.113.307s72.764,16.988,104.93,9.565" transform="translate(86.791 86.516)" fill="none" stroke="#fff" stroke-miterlimit="10" stroke-width="3"/>
        <path id="duplicate_18_original_Path_6_97883563" data-name="duplicate_18_original_Path 6_97883563" d="M0,143.657s28.527-13.817,49.377-37.138,62.8-21.113,84.245-18.407,61.42,2.331,83.666-29.535S246.428-3.379,286.113.307s72.764,16.988,104.93,9.565" transform="translate(81.989 81.71)" fill="none" stroke="#fff" stroke-miterlimit="10" stroke-width="3"/>
        <path id="duplicate_17_original_Path_6_97883563" data-name="duplicate_17_original_Path 6_97883563" d="M0,143.657s28.527-13.817,49.377-37.138,62.8-21.113,84.245-18.407,61.42,2.331,83.666-29.535S246.428-3.379,286.113.307s72.764,16.988,104.93,9.565" transform="translate(77.188 76.905)" fill="none" stroke="#fff" stroke-miterlimit="10" stroke-width="3"/>
        <path id="duplicate_16_original_Path_6_97883563" data-name="duplicate_16_original_Path 6_97883563" d="M0,143.657s28.527-13.817,49.377-37.138,62.8-21.113,84.245-18.407,61.42,2.331,83.666-29.535S246.428-3.379,286.113.307s72.764,16.988,104.93,9.565" transform="translate(72.386 72.099)" fill="none" stroke="#fff" stroke-miterlimit="10" stroke-width="3"/>
        <path id="duplicate_15_original_Path_6_97883563" data-name="duplicate_15_original_Path 6_97883563" d="M0,143.657s28.527-13.817,49.377-37.138,62.8-21.113,84.245-18.407,61.42,2.331,83.666-29.535S246.428-3.379,286.113.307s72.764,16.988,104.93,9.565" transform="translate(67.584 67.293)" fill="none" stroke="#fff" stroke-miterlimit="10" stroke-width="3"/>
        <path id="duplicate_14_original_Path_6_97883563" data-name="duplicate_14_original_Path 6_97883563" d="M0,143.657s28.527-13.817,49.377-37.138,62.8-21.113,84.245-18.407,61.42,2.331,83.666-29.535S246.428-3.379,286.113.307s72.764,16.988,104.93,9.565" transform="translate(62.783 62.488)" fill="none" stroke="#fff" stroke-miterlimit="10" stroke-width="3"/>
        <path id="duplicate_13_original_Path_6_97883563" data-name="duplicate_13_original_Path 6_97883563" d="M0,143.657s28.527-13.817,49.377-37.138,62.8-21.113,84.245-18.407,61.42,2.331,83.666-29.535S246.428-3.379,286.113.307s72.764,16.988,104.93,9.565" transform="translate(57.981 57.682)" fill="none" stroke="#fff" stroke-miterlimit="10" stroke-width="3"/>
        <path id="duplicate_12_original_Path_6_97883563" data-name="duplicate_12_original_Path 6_97883563" d="M0,143.657s28.527-13.817,49.377-37.138,62.8-21.113,84.245-18.407,61.42,2.331,83.666-29.535S246.428-3.379,286.113.307s72.764,16.988,104.93,9.565" transform="translate(53.179 52.876)" fill="none" stroke="#fff" stroke-miterlimit="10" stroke-width="3"/>
        <path id="duplicate_11_original_Path_6_97883563" data-name="duplicate_11_original_Path 6_97883563" d="M0,143.657s28.527-13.817,49.377-37.138,62.8-21.113,84.245-18.407,61.42,2.331,83.666-29.535S246.428-3.379,286.113.307s72.764,16.988,104.93,9.565" transform="translate(48.378 48.071)" fill="none" stroke="#fff" stroke-miterlimit="10" stroke-width="3"/>
        <path id="duplicate_10_original_Path_6_97883563" data-name="duplicate_10_original_Path 6_97883563" d="M0,143.657s28.527-13.817,49.377-37.138,62.8-21.113,84.245-18.407,61.42,2.331,83.666-29.535S246.428-3.379,286.113.307s72.764,16.988,104.93,9.565" transform="translate(43.576 43.265)" fill="none" stroke="#fff" stroke-miterlimit="10" stroke-width="3"/>
        <path id="duplicate_9_original_Path_6_97883563" data-name="duplicate_9_original_Path 6_97883563" d="M0,143.657s28.527-13.817,49.377-37.138,62.8-21.113,84.245-18.407,61.42,2.331,83.666-29.535S246.428-3.379,286.113.307s72.764,16.988,104.93,9.565" transform="translate(38.774 38.459)" fill="none" stroke="#fff" stroke-miterlimit="10" stroke-width="3"/>
        <path id="duplicate_8_original_Path_6_97883563" data-name="duplicate_8_original_Path 6_97883563" d="M0,143.657s28.527-13.817,49.377-37.138,62.8-21.113,84.245-18.407,61.42,2.331,83.666-29.535S246.428-3.379,286.113.307s72.764,16.988,104.93,9.565" transform="translate(33.972 33.654)" fill="none" stroke="#fff" stroke-miterlimit="10" stroke-width="3"/>
        <path id="duplicate_7_original_Path_6_97883563" data-name="duplicate_7_original_Path 6_97883563" d="M0,143.657s28.527-13.817,49.377-37.138,62.8-21.113,84.245-18.407,61.42,2.331,83.666-29.535S246.428-3.379,286.113.307s72.764,16.988,104.93,9.565" transform="translate(29.171 28.848)" fill="none" stroke="#fff" stroke-miterlimit="10" stroke-width="3"/>
        <path id="duplicate_6_original_Path_6_97883563" data-name="duplicate_6_original_Path 6_97883563" d="M0,143.657s28.527-13.817,49.377-37.138,62.8-21.113,84.245-18.407,61.42,2.331,83.666-29.535S246.428-3.379,286.113.307s72.764,16.988,104.93,9.565" transform="translate(24.369 24.042)" fill="none" stroke="#fff" stroke-miterlimit="10" stroke-width="3"/>
        <path id="duplicate_5_original_Path_6_97883563" data-name="duplicate_5_original_Path 6_97883563" d="M0,143.657s28.527-13.817,49.377-37.138,62.8-21.113,84.245-18.407,61.42,2.331,83.666-29.535S246.428-3.379,286.113.307s72.764,16.988,104.93,9.565" transform="translate(19.567 19.237)" fill="none" stroke="#fff" stroke-miterlimit="10" stroke-width="3"/>
        <path id="duplicate_4_original_Path_6_97883563" data-name="duplicate_4_original_Path 6_97883563" d="M0,143.657s28.527-13.817,49.377-37.138,62.8-21.113,84.245-18.407,61.42,2.331,83.666-29.535S246.428-3.379,286.113.307s72.764,16.988,104.93,9.565" transform="translate(14.766 14.431)" fill="none" stroke="#fff" stroke-miterlimit="10" stroke-width="3"/>
        <path id="duplicate_3_original_Path_6_97883563" data-name="duplicate_3_original_Path 6_97883563" d="M0,143.657s28.527-13.817,49.377-37.138,62.8-21.113,84.245-18.407,61.42,2.331,83.666-29.535S246.428-3.379,286.113.307s72.764,16.988,104.93,9.565" transform="translate(9.964 9.625)" fill="none" stroke="#fff" stroke-miterlimit="10" stroke-width="3"/>
        <path id="duplicate_2_original_Path_6_97883563" data-name="duplicate_2_original_Path 6_97883563" d="M0,143.657s28.527-13.817,49.377-37.138,62.8-21.113,84.245-18.407,61.42,2.331,83.666-29.535S246.428-3.379,286.113.307s72.764,16.988,104.93,9.565" transform="translate(5.162 4.82)" fill="none" stroke="#fff" stroke-miterlimit="10" stroke-width="3"/>
        <path id="duplicate_1_original_Path_6_97883563" data-name="duplicate_1_original_Path 6_97883563" d="M0,143.657s28.527-13.817,49.377-37.138,62.8-21.113,84.245-18.407,61.42,2.331,83.666-29.535S246.428-3.379,286.113.307s72.764,16.988,104.93,9.565" transform="translate(0.361 0.014)" fill="none" stroke="#fff" stroke-miterlimit="10" stroke-width="3"/>
      </g>
    </g>
  </g>
</svg>
