<svg id="bitcoin" xmlns="http://www.w3.org/2000/svg" width="18" height="18.003" viewBox="0 0 18 18.003">
  <path id="Path_18" data-name="Path 18" d="M11.811,8.819l-.492,1.972c.557.139,2.277.706,2.555-.411C14.163,9.218,12.367,8.959,11.811,8.819Zm-.74,2.967-.543,2.174c.669.167,2.734.829,3.039-.4C13.887,12.283,11.741,11.953,11.071,11.786Z" transform="translate(-2.856 -2.68)" fill="#a6a9b7"/>
  <path id="Path_19" data-name="Path 19" d="M13.184,2.269a9,9,0,1,0,6.553,10.909A9,9,0,0,0,13.184,2.269Zm1.793,7.45a1.579,1.579,0,0,1-1.262,1.45,1.734,1.734,0,0,1,.908,2.4c-.533,1.522-1.8,1.651-3.484,1.332l-.409,1.639-.987-.246.4-1.615c-.255-.064-.517-.131-.788-.205l-.4,1.624-.986-.248.409-1.641c-.231-.059-.465-.122-.7-.182L6.385,13.7l.492-1.131s.727.194.718.179a.358.358,0,0,0,.452-.235l.647-2.588.1.026a.778.778,0,0,0-.1-.033l.461-1.848A.526.526,0,0,0,8.7,7.5c.016-.01-.718-.178-.718-.178L8.24,6.265l1.363.34v0c.2.051.415.1.63.149l.4-1.622.988.246-.4,1.59c.265.06.532.122.791.186l.394-1.58.988.246L13,7.446C14.243,7.877,15.154,8.522,14.976,9.719Z" transform="translate(-2.007 -2)" fill="#a6a9b7"/>
</svg>
