<svg xmlns="http://www.w3.org/2000/svg" width="16" height="14" viewBox="0 0 16 14">
  <path id="Shape" d="M8,14a6.353,6.353,0,0,1-2.979-.767l.01-.019a.7.7,0,0,1-.365-.615.685.685,0,0,1,.667-.7.618.618,0,0,1,.327.1A5.074,5.074,0,0,0,8,12.6,5.478,5.478,0,0,0,13.333,7a5.788,5.788,0,0,0-.346-1.962l-.341,1.431-.012,0A.669.669,0,0,1,12,7a.685.685,0,0,1-.666-.7.519.519,0,0,1,.023-.133l.009-.033-.012,0,.667-2.8.012,0a.669.669,0,0,1,.634-.534h2.667a.7.7,0,0,1,0,1.4H14.1A7.224,7.224,0,0,1,14.666,7,6.847,6.847,0,0,1,8,14ZM3.334,11.2H.667a.7.7,0,0,1,0-1.4H1.9A7.208,7.208,0,0,1,1.333,7,6.848,6.848,0,0,1,8,0a6.325,6.325,0,0,1,2.958.766l0,.008a.7.7,0,0,1,.38.626.684.684,0,0,1-.667.7.622.622,0,0,1-.3-.086l0,0A5.042,5.042,0,0,0,8,1.4,5.478,5.478,0,0,0,2.667,7a5.788,5.788,0,0,0,.346,1.962L3.353,7.53l.012,0A.669.669,0,0,1,4,7a.685.685,0,0,1,.667.7.5.5,0,0,1-.021.126c0,.014-.007.027-.01.041l.012,0-.667,2.8-.012,0A.669.669,0,0,1,3.334,11.2Z" fill="#fff"/>
</svg>
