<svg id="new-bill" xmlns="http://www.w3.org/2000/svg" width="18" height="18" viewBox="0 0 18 18">
  <path id="Path_22" data-name="Path 22" d="M2.462,12.15l8.12,4.536a.9.9,0,0,0,.876,0l8.08-4.5a.9.9,0,0,0,0-1.574l-8.12-4.5a.9.9,0,0,0-.871,0l-8.08,4.464a.9.9,0,0,0,0,1.574Z" transform="translate(-2 -2.4)" fill="#a6a9b7"/>
  <path id="Path_23" data-name="Path 23" d="M3.388,13.813l-.874,1.573,8.1,4.5a.9.9,0,0,0,.874,0l8.1-4.5-.874-1.573L11.051,18.07ZM18.251,7.4V5.6h1.8V3.8h-1.8V2h-1.8V3.8h-1.8V5.6h1.8V7.4Z" transform="translate(-2.051 -2)" fill="#a6a9b7"/>
</svg>
