<svg id="notes" xmlns="http://www.w3.org/2000/svg" width="17.986" height="18.059" viewBox="0 0 17.986 18.059">
  <path id="Path_20" data-name="Path 20" d="M3.8,16.791H5.6v3.67l4.587-3.67H14.59a1.8,1.8,0,0,0,1.8-1.8V7.8A1.8,1.8,0,0,0,14.59,6H3.8A1.8,1.8,0,0,0,2,7.8v7.194A1.8,1.8,0,0,0,3.8,16.791Z" transform="translate(-2 -2.403)" fill="#a6a9b7"/>
  <path id="Path_21" data-name="Path 21" d="M18.59,2H7.8A1.8,1.8,0,0,0,6,3.8H16.791a1.8,1.8,0,0,1,1.8,1.8v7.194a1.8,1.8,0,0,0,1.8-1.8V3.8A1.8,1.8,0,0,0,18.59,2Z" transform="translate(-2.403 -2)" fill="#a6a9b7"/>
</svg>
