<svg xmlns="http://www.w3.org/2000/svg" width="62.782" height="19.665" viewBox="0 0 62.782 19.665">
  <g id="visa-pay-logo" transform="translate(0 -0.246)">
    <path id="Shape" d="M3.191,0,0,18.724H5.1L8.3,0Z" transform="translate(21.948 0.906)" fill="#fff"/>
    <path id="Shape-2" data-name="Shape" d="M12.6,0l-5,12.769-.533-1.928A20.034,20.034,0,0,0,0,3.083L4.57,18.7l5.4-.009L18.006,0Z" transform="translate(5.069 0.923)" fill="#fff"/>
    <path id="Shape-3" data-name="Shape" d="M10.2,1.521A2.053,2.053,0,0,0,7.977,0H.066L0,.373c6.157,1.494,10.231,5.093,11.921,9.42Z" transform="translate(0 0.246)" fill="#fff"/>
    <path id="Shape-4" data-name="Shape" d="M10.342,3.911a9.421,9.421,0,0,1,3.819.717l.461.217.69-4.058A13.172,13.172,0,0,0,10.741,0C5.7,0,2.145,2.54,2.117,6.179c-.033,2.689,2.532,4.191,4.469,5.087,1.988.919,2.655,1.5,2.646,2.323-.016,1.253-1.586,1.828-3.052,1.828a10.712,10.712,0,0,1-4.805-.98l-.658-.3L0,18.329a16.162,16.162,0,0,0,5.686,1c5.364,0,8.85-2.51,8.887-6.4.022-2.128-1.339-3.751-4.288-5.083C8.5,6.976,7.408,6.4,7.418,5.522,7.418,4.743,8.345,3.911,10.342,3.911Z" transform="translate(30.244 0.584)" fill="#fff"/>
    <path id="Shape-5" data-name="Shape" d="M5.358,18.714H0L7.577,1.554A2.532,2.532,0,0,1,10.251,0h3.942l4.129,18.712H13.588c-.008-.038-.477-2.183-.622-2.805l-3.583,0-2.952,0c-.187.477-.982,2.572-1.072,2.809h0ZM9.933,6.835l-.005.014c-.166.429-1.636,4.216-2.028,5.219h4.239c-.2-.924-1.173-5.362-1.183-5.406l-.344-1.614c-.126.338-.3.777-.432,1.132l0,.012c-.174.453-.245.638-.244.645Z" transform="translate(44.46 0.927)" fill="#fff"/>
  </g>
</svg>
