<svg id="icon2" xmlns="http://www.w3.org/2000/svg" width="17.238" height="15.801" viewBox="0 0 17.238 15.801">
  <path id="Shape" d="M1.436,2.873A1.436,1.436,0,1,0,0,1.436,1.441,1.441,0,0,0,1.436,2.873Z" transform="translate(10.055 8.619)" fill="#fff"/>
  <path id="Shape-2" data-name="Shape" d="M17.238,15.8H3.591A3.553,3.553,0,0,1,0,12.21V2.873A2.876,2.876,0,0,1,2.873,0H15.8V2.873H14.365V1.436H2.873a1.436,1.436,0,1,0,0,2.873H17.238V15.8ZM1.436,5.314v6.9a2.107,2.107,0,0,0,2.155,2.155H15.8V5.746H2.873A2.575,2.575,0,0,1,1.436,5.314Z" transform="translate(0 0)" fill="#fff"/>
</svg>
